<svg width="25" height="15" viewBox="0 0 25 15" fill="none" xmlns="http://www.w3.org/2000/svg">
<path d="M13.5838 0C14.0638 0 14.5201 0.0737494 14.9528 0.221248C15.3856 0.368747 15.7435 0.57156 16.0268 0.829689L22.7774 7.00098C23.7058 7.83857 24.17 8.78415 24.17 9.83773V12.6429C24.17 13.0643 23.9497 13.4225 23.5091 13.7175C23.0685 14.0125 22.5335 14.16 21.9041 14.16H17.3722C16.7428 14.16 16.2077 14.0125 15.7671 13.7175C15.3265 13.4225 15.1063 13.0643 15.1063 12.6429V11.2442L11.7309 10.1143H5.28719C4.65776 10.1143 4.12275 9.96678 3.68215 9.67178C3.24155 9.37678 3.02125 9.01857 3.02125 8.59714V8.34428C3.02125 7.71741 3.35367 7.1814 4.01851 6.73627C4.68333 6.29114 5.48388 6.06857 6.42016 6.06857H11.3769L11.8726 5.05714H3.77656C2.98978 5.05714 2.30724 4.87935 1.72895 4.52377C1.15067 4.16819 0.830057 3.72964 0.767114 3.20812C0.255705 2.79196 0 2.31258 0 1.76999V1.51715C0 1.09572 0.220299 0.737509 0.660898 0.442505C1.1015 0.147502 1.63651 0 2.26594 0H13.5838ZM22.6594 12.6429V9.83772C22.6594 9.01066 22.2935 8.26263 21.5618 7.59361L14.7994 1.42232C14.4926 1.14839 14.0874 1.01143 13.5838 1.01143H2.26594C2.06137 1.01143 1.88435 1.06147 1.73486 1.16156C1.58537 1.26165 1.51063 1.38018 1.51063 1.51715C1.51063 1.68572 1.51653 1.8161 1.52833 1.90829C1.54013 2.00048 1.5775 2.10715 1.64044 2.22831C1.70339 2.34947 1.80174 2.46273 1.93549 2.56808C2.01417 2.40478 2.15382 2.27309 2.35446 2.173C2.55508 2.07291 2.77735 2.02287 3.02125 2.02287H12.8403V2.27572H3.02125C2.81669 2.27572 2.63966 2.32577 2.49017 2.42585C2.34068 2.52594 2.26594 2.64447 2.26594 2.78143C2.26594 3.01321 2.27774 3.16598 2.30134 3.23973C2.36429 3.47151 2.53738 3.66379 2.82062 3.81656C3.10386 3.96933 3.42251 4.04571 3.77656 4.04571H12.4036C12.7184 4.04571 12.9859 4.11946 13.2062 4.26696C13.4265 4.41446 13.5366 4.59357 13.5366 4.80429C13.5366 4.88331 13.5169 4.96232 13.4776 5.04134L12.7223 6.55849C12.6436 6.71125 12.5059 6.83636 12.3092 6.93381C12.1125 7.03127 11.8922 7.08 11.6483 7.08H6.42016C5.90088 7.08 5.45635 7.20379 5.08656 7.45138C4.71677 7.69897 4.53188 7.99661 4.53188 8.34428V8.59714C4.53188 8.7341 4.60662 8.85263 4.75611 8.95273C4.9056 9.05281 5.08262 9.10285 5.28719 9.10285H11.908C12.0339 9.10285 12.1479 9.12129 12.2502 9.15817L15.9914 10.4066C16.1802 10.4751 16.3317 10.57 16.4458 10.6911C16.5598 10.8123 16.6169 10.944 16.6169 11.0862V12.6429C16.6169 12.7798 16.6916 12.8983 16.8411 12.9984C16.9906 13.0985 17.1676 13.1486 17.3722 13.1486H21.9041C22.1086 13.1486 22.2857 13.0985 22.4351 12.9984C22.5846 12.8983 22.6594 12.7798 22.6594 12.6429Z" fill="#A98335"/>
</svg>
