<svg width="34" height="33" viewBox="0 0 34 33" fill="none" xmlns="http://www.w3.org/2000/svg">
<ellipse cx="17" cy="16.5" rx="17" ry="16.5" fill="#F0CA7C"/>
<path d="M24.5062 27.0018L24.5579 7.66456C24.5588 7.34402 24.4323 7.03627 24.2062 6.80901C23.9802 6.58176 23.6731 6.4536 23.3526 6.45274L19.7268 6.44304L19.7333 4.02588L14.899 4.01294L14.8925 6.4301L11.2668 6.4204C10.9463 6.41954 10.6385 6.54605 10.4112 6.7721C10.184 6.99814 10.0558 7.30521 10.055 7.62574L10.0032 26.963C10.0024 27.2835 10.1289 27.5913 10.3549 27.8186C10.581 28.0458 10.888 28.174 11.2086 28.1748L23.2944 28.2072C23.6149 28.208 23.9226 28.0815 24.1499 27.8555C24.3772 27.6294 24.5053 27.3224 24.5062 27.0018ZM12.4236 25.7609L12.4689 8.84079L22.1375 8.86667L22.0922 25.7868L12.4236 25.7609Z" fill="#A98335"/>
<path d="M20.916 13.6977L20.9225 11.2806L13.671 11.2612L13.6645 13.6783L20.916 13.6977Z" fill="#A98335"/>
<path d="M20.9031 18.532L20.9095 16.1149L13.6581 16.0955L13.6516 18.5126L20.9031 18.532Z" fill="#A98335"/>
<path d="M20.8901 23.3664L20.8966 20.9492L13.6451 20.9298L13.6387 23.347L20.8901 23.3664Z" fill="#A98335"/>
</svg>
